<svg version="1.2" xmlns="http://www.w3.org/2000/svg" viewBox="0 0 885 272" width="350" height="80">
	<title>DeWalt_Logo</title>
	<style>
		.s0 { fill: #febd18 } 
		.s1 { fill: #000000 } 
	</style>
	<g id="layer1">
		<g id="g4899">
			<path id="path4490" class="s0" d="m885.3 272.6v-272.2h-885.9v272.2z"/>
			<path id="path4494" class="s1" d="m47.6 45.5h809.6v15.4h-809.6z"/>
			<path id="path4496" class="s1" d="m47.6 226h809.5v15.3h-809.5z"/>
			<path id="path4500" class="s1" d="m734.3 68.6h122.9v42.2h-33.3v107.1h-56.4v-107.1h-33.2z"/>
			<path id="path4504" class="s1" d="m649.9 68.6v149.3h102.3v-44.5h-46v-104.8z"/>
			<path id="path4508" class="s1" d="m534.6 68.5h61.8l47.4 149.4h-55l-5.7-22.7h-34.5l-5.1 22.7h-57.5zm21.6 93.5h19.2l-9.3-43.5z"/>
			<path id="path4512" class="s1" d="m504.9 68.5h-55l-15.3 73-16.7-73h-48.6l-15.7 73-15-73h-54.9l41 149.4h51l17.2-72.9 17.6 72.9h52.2c0 0 42.2-149.4 42.2-149.4z"/>
			<path id="path4516" class="s1" d="m202.7 100.5h81.9v30.8h-39.7v12.7h34.6v30.8h-34.6v12.7h39.7v30.4h-81.9z"/>
			<path id="path4520" class="s1" d="m47.6 217.9v-149.4h70c41.3 0 74.2 22.5 74.2 75 0 51.1-31.8 74.4-74.5 74.4zm57.8-44.7c17.7 0 29.4-7.4 29.4-30.1 0-25-11.6-31.6-29.3-31.6h-4.5v61.7z"/>
			<path id="path4524" class="s1" d="m831.5 205.5c0-7 5.7-12.2 12.4-12.2 6.7 0 12.4 5.2 12.4 12.2 0 7.1-5.7 12.3-12.4 12.3-6.7 0-12.4-5.2-12.4-12.3zm12.4 10.2c5.6 0 9.9-4.3 9.9-10.2 0-5.8-4.3-10.2-9.9-10.2-5.6 0-9.9 4.4-9.9 10.2 0 5.9 4.3 10.2 9.9 10.2zm-2.4-8.6h2l2.7 4.5h3.1l-3.2-4.7c2.1-0.3 3.6-1.6 3.6-4.1 0-2.2-1.7-3.8-5.1-3.8h-5.4v12.6h2.3zm0-2.1v-4.1h2.8c1.5 0 3.2 0.1 3.2 2 0 2.1-1.4 2.1-3.2 2.1z"/>
		</g>
	</g>
</svg>